<?xml version="1.0" standalone="no"?>
<!DOCTYPE svg PUBLIC "-//W3C//DTD SVG 20010904//EN"
 "http://www.w3.org/TR/2001/REC-SVG-20010904/DTD/svg10.dtd">
<svg version="1.0" xmlns="http://www.w3.org/2000/svg"
 width="423.000000pt" height="423.000000pt" viewBox="0 0 423.000000 423.000000"
 preserveAspectRatio="xMidYMid meet">
<metadata>
Created by potrace 1.14, written by Peter Selinger 2001-2017
</metadata>
<g transform="translate(0.000000,423.000000) scale(0.100000,-0.100000)"
fill="#000000" stroke="none">
<path d="M1344 3198 c3 -10 1 -18 -4 -18 -6 0 -10 6 -10 13 0 9 -2 9 -9 -1 -4
-8 -12 -14 -17 -15 -5 -1 -8 -11 -6 -22 3 -20 3 -20 -13 0 -9 11 -14 15 -11 8
4 -6 2 -14 -3 -17 -6 -4 -8 8 -6 26 2 18 1 27 -2 21 -2 -7 -13 -13 -24 -13
-10 0 -19 -4 -19 -8 0 -4 -13 -9 -30 -10 -18 -1 -30 3 -30 10 0 6 -3 8 -7 5
-3 -4 4 -19 18 -34 13 -15 17 -22 8 -15 -9 6 -20 8 -24 4 -5 -4 -6 -2 -3 3 3
6 0 15 -7 22 -11 10 -15 10 -19 0 -3 -9 -7 -8 -15 3 -8 11 -11 12 -11 2 0 -7
-5 -10 -12 -6 -7 4 -8 3 -4 -5 4 -6 12 -8 18 -5 7 4 8 2 4 -5 -4 -6 -11 -9
-16 -6 -11 7 -32 -20 -22 -30 4 -5 0 -4 -8 1 -24 14 -39 13 -33 -2 3 -8 0 -14
-6 -14 -6 0 -10 6 -8 12 1 8 -11 13 -36 13 -31 0 -35 -2 -22 -11 14 -10 13
-12 -5 -17 -11 -3 -20 -11 -20 -19 0 -10 3 -9 10 2 7 12 9 10 7 -8 -1 -14 -5
-18 -11 -12 -6 6 -16 4 -28 -7 -10 -9 -18 -13 -18 -9 0 4 -6 1 -14 -6 -8 -7
-11 -17 -8 -23 3 -5 -6 0 -20 13 -13 12 -28 22 -33 22 -5 0 0 -7 11 -15 19
-15 19 -15 0 -8 -15 5 -18 3 -13 -10 5 -14 2 -16 -16 -13 -12 2 -28 -3 -35
-10 -15 -17 -8 -18 19 -4 10 6 19 7 19 2 0 -5 7 -9 16 -9 10 0 14 7 11 18 -3
11 0 16 7 13 6 -2 12 -13 12 -23 0 -15 -7 -18 -33 -15 -37 3 -51 -10 -33 -31
20 -24 0 -17 -22 8 -11 12 -16 15 -12 7 14 -25 13 -39 -2 -33 -8 3 -11 10 -7
17 3 6 2 7 -3 3 -5 -5 -9 -13 -9 -18 0 -5 -4 -9 -10 -8 -5 0 -8 8 -7 17 2 9 1
14 -3 10 -4 -4 -9 -22 -10 -39 -2 -18 -10 -38 -19 -45 -11 -8 -13 -13 -5 -16
6 -2 13 -16 14 -31 2 -15 -1 -25 -6 -21 -8 4 -13 -8 -11 -27 1 -3 -4 -6 -11
-6 -7 0 -20 -4 -29 -8 -11 -4 -18 -3 -18 4 0 6 -5 11 -10 11 -6 0 -3 -11 7
-24 10 -13 21 -22 26 -19 4 2 6 -1 5 -9 -2 -7 3 -12 10 -10 8 1 11 -2 7 -8 -3
-6 -12 -7 -18 -3 -7 4 -15 8 -19 8 -3 0 -10 4 -15 9 -5 5 -2 6 7 1 12 -6 13
-5 3 5 -15 16 -28 7 -17 -12 15 -23 13 -40 -2 -34 -9 3 -12 1 -9 -4 3 -6 0
-10 -7 -10 -8 0 -9 -3 -3 -8 6 -4 12 -16 14 -27 3 -19 2 -19 -16 -2 -16 14
-20 14 -20 2 0 -8 3 -12 6 -10 4 2 15 -4 26 -12 11 -9 13 -13 5 -11 -8 3 -21
-1 -28 -9 -11 -11 -9 -13 14 -9 14 3 24 2 20 -1 -3 -3 0 -13 6 -22 8 -10 4 -9
-10 3 -12 11 -22 14 -22 8 0 -7 -7 -9 -17 -5 -10 3 -15 3 -11 -1 3 -4 13 -9
22 -10 14 -2 19 -8 15 -18 -3 -10 -10 -56 -10 -72 0 -23 -8 -16 -14 13 -2 11
0 21 6 21 20 0 8 16 -13 17 -18 2 -20 0 -8 -7 13 -9 13 -10 0 -10 -12 0 -12
-2 -2 -9 8 -4 13 -11 13 -15 -3 -23 1 -37 16 -52 17 -17 17 -18 1 -11 -10 3
-18 2 -18 -3 0 -6 6 -10 13 -10 9 0 9 -2 -1 -9 -8 -4 -13 -17 -11 -27 3 -30
-11 -53 -29 -47 -14 4 -14 3 -3 -5 8 -6 11 -17 8 -27 -4 -10 -3 -14 4 -9 7 4
9 0 5 -14 -4 -12 -2 -23 5 -28 7 -4 9 -3 5 4 -3 6 -2 14 4 17 8 5 8 11 0 20
-8 9 -8 20 -2 31 8 15 9 15 15 0 5 -11 3 -15 -4 -10 -7 4 -10 1 -7 -7 3 -8 10
-14 15 -14 6 0 15 -4 20 -8 4 -5 3 -8 -2 -7 -21 5 -25 -1 -15 -20 9 -16 8 -19
-6 -13 -12 4 -15 3 -10 -6 6 -8 -3 -7 -25 4 -22 10 -28 11 -17 2 14 -11 15
-16 5 -27 -10 -12 -9 -12 3 -3 18 13 56 -9 45 -26 -10 -17 -28 -13 -21 4 3 8
1 15 -3 15 -5 0 -9 -16 -9 -35 0 -19 4 -35 10 -35 5 0 7 -4 4 -9 -3 -5 0 -14
8 -20 11 -9 15 -9 18 1 3 8 7 6 11 -5 3 -9 3 -16 -1 -14 -8 2 -12 -7 -12 -25
0 -9 4 -8 10 2 8 12 9 10 7 -8 -2 -12 -9 -28 -15 -34 -9 -9 -11 -6 -7 10 2 12
-1 22 -7 22 -5 0 -8 -6 -5 -14 3 -8 1 -17 -6 -20 -9 -3 -8 -5 1 -5 8 -1 10 -6
6 -13 -6 -10 -4 -10 7 0 18 16 34 16 20 -1 -6 -8 -8 -17 -4 -20 3 -4 1 -7 -6
-7 -7 0 -9 -4 -6 -10 3 -5 11 -10 16 -10 6 0 8 4 5 9 -3 4 1 16 8 26 12 17 13
16 11 -6 -1 -13 5 -30 14 -37 14 -11 13 -12 -6 -3 -18 9 -22 8 -26 -7 -2 -9 3
-29 10 -45 10 -20 11 -32 2 -48 -6 -11 -8 -23 -6 -26 3 -2 8 5 12 16 3 12 11
18 17 15 5 -3 2 8 -6 25 -9 17 -13 31 -9 31 5 0 2 4 -6 9 -9 6 -10 11 -2 15 6
4 12 2 12 -3 1 -6 3 -15 4 -21 1 -5 3 -13 4 -16 0 -4 9 0 19 7 15 13 16 12 3
-3 -7 -10 -11 -24 -8 -31 3 -7 -1 -21 -9 -32 -15 -21 -18 -36 -6 -34 24 4 34
-3 29 -20 -3 -13 0 -18 8 -15 7 3 16 0 20 -5 3 -6 12 -8 18 -4 8 4 7 1 -1 -9
-9 -11 -10 -18 -2 -23 5 -3 10 -13 10 -22 0 -14 -3 -14 -19 3 -12 12 -15 23
-9 31 5 7 5 14 -2 18 -5 3 -11 4 -11 1 -6 -24 -1 -36 28 -69 19 -21 31 -42 28
-47 -4 -6 -1 -10 5 -10 6 0 10 7 8 16 -2 12 5 18 21 19 21 2 22 0 8 -10 -20
-14 -12 -26 11 -18 10 4 14 3 10 -1 -3 -4 -14 -9 -24 -10 -10 -2 -20 -9 -22
-17 -3 -11 -1 -11 7 1 10 14 16 7 12 -13 -1 -5 3 -6 9 -2 5 3 10 2 10 -4 0 -5
-3 -11 -7 -14 -5 -2 -3 -2 4 -1 7 2 15 -1 19 -7 3 -6 12 -8 18 -6 20 8 37 -8
30 -26 -3 -9 -11 -14 -16 -11 -6 4 -6 9 2 14 9 5 9 9 1 14 -6 4 -11 2 -11 -4
0 -6 -4 -9 -9 -6 -5 3 -11 -1 -14 -9 -4 -9 -1 -12 7 -9 8 3 17 0 21 -5 3 -6
12 -8 18 -4 18 11 38 13 32 2 -3 -4 6 -18 20 -31 14 -12 25 -28 25 -35 0 -7 5
-13 11 -13 5 0 7 -4 4 -10 -3 -5 1 -10 10 -10 10 0 13 5 9 13 -4 6 2 4 13 -6
11 -9 22 -14 26 -11 3 3 4 -2 3 -13 -2 -10 -6 -17 -9 -15 -4 1 -13 2 -19 2
-10 0 -9 3 1 9 9 6 10 11 2 15 -6 4 -11 3 -11 -3 0 -14 -45 3 -46 18 -1 6 -2
18 -3 26 0 9 -12 20 -26 27 -13 6 -22 14 -20 19 3 4 0 11 -6 15 -8 4 -9 3 -5
-4 4 -8 0 -12 -11 -12 -11 -1 -6 -6 14 -15 30 -13 53 -40 50 -59 -1 -5 7 -14
18 -20 11 -6 35 -22 53 -34 31 -23 32 -25 15 -39 -17 -13 -17 -14 2 -5 11 6
24 10 28 10 5 0 12 4 15 8 4 4 1 4 -5 0 -9 -5 -11 -2 -6 10 5 14 8 13 21 -8 8
-13 28 -30 44 -37 16 -7 27 -16 24 -19 -3 -2 -14 1 -23 9 -15 10 -16 10 -6 0
8 -9 9 -21 2 -38 -6 -16 -5 -22 1 -18 6 3 10 13 10 21 0 8 7 14 15 14 9 0 12
-6 9 -17 -5 -17 -5 -17 6 -1 6 10 16 18 22 18 9 0 9 -3 0 -12 -19 -19 -14 -24
18 -24 17 0 30 3 30 8 0 4 5 8 10 8 6 0 5 -8 -2 -20 -7 -11 -16 -20 -21 -20
-4 0 -5 4 -2 10 3 6 -1 7 -10 4 -9 -4 -14 -9 -11 -12 9 -9 56 -11 51 -2 -3 5
0 12 6 16 8 4 9 3 5 -4 -4 -7 -2 -13 3 -13 6 -1 16 -3 21 -4 6 -1 15 -3 20 -4
6 0 10 -9 10 -18 0 -15 -2 -16 -10 -3 -5 8 -10 11 -10 6 0 -5 -6 -3 -14 3 -10
8 -16 9 -21 1 -4 -6 -3 -10 2 -9 19 3 27 -2 15 -10 -11 -7 -10 -9 3 -14 9 -4
14 -3 10 3 -4 6 3 8 17 6 13 -3 25 -5 27 -5 3 -1 -4 -8 -15 -17 -10 -8 -13
-12 -5 -8 7 3 18 0 23 -7 8 -11 9 -10 4 4 -3 9 -1 17 3 17 5 0 11 -5 13 -12 3
-7 7 -5 11 6 4 9 3 15 -2 12 -4 -3 -15 0 -24 7 -13 9 -14 16 -6 27 9 13 10 12
5 -2 -5 -17 3 -22 29 -19 6 0 17 -9 24 -22 13 -20 13 -21 -2 -8 -11 9 -17 10
-17 2 0 -10 7 -13 26 -10 4 0 11 -5 16 -13 6 -9 7 -6 3 10 -7 23 8 31 21 11 5
-8 9 -8 14 1 5 9 9 9 14 1 4 -6 3 -11 -3 -11 -13 0 -7 -33 7 -38 7 -2 10 2 6
11 -3 8 0 18 7 23 7 4 10 3 7 -2 -3 -5 3 -25 14 -44 13 -23 18 -27 15 -12 -3
13 0 22 6 22 7 0 3 7 -7 15 -11 8 -15 15 -10 15 6 0 15 -5 22 -12 7 -7 12 -8
12 -4 0 5 7 3 15 -4 17 -14 20 -30 4 -30 -5 0 -8 4 -5 8 3 5 -1 9 -9 9 -8 0
-15 -4 -15 -9 0 -4 5 -8 11 -8 5 0 7 -5 4 -10 -7 -11 17 -10 25 2 13 16 60 12
60 -6 0 -9 7 -12 19 -9 11 3 21 -2 24 -11 4 -10 13 -13 24 -9 16 6 17 5 3 -13
-14 -17 -13 -18 1 -7 9 7 19 10 22 6 4 -3 7 -1 7 5 0 6 9 9 19 7 15 -3 18 1
14 13 -3 10 -1 13 4 7 4 -6 15 -10 23 -10 25 2 31 -5 21 -24 -7 -13 -6 -18 4
-18 8 0 12 4 9 8 -11 19 25 14 60 -8 21 -14 35 -20 32 -14 -5 7 4 11 23 11 16
0 31 -5 33 -12 3 -7 7 -5 11 6 4 9 3 15 -1 12 -4 -2 -14 0 -22 6 -12 8 -12 9
3 4 9 -3 17 -1 17 5 0 6 8 1 19 -12 10 -13 16 -30 13 -39 -4 -11 -2 -12 7 -4
10 9 9 19 -4 45 -11 23 -11 28 -2 17 8 -10 16 -15 19 -12 4 3 5 -3 4 -12 -1
-14 7 -18 31 -20 18 0 40 -7 50 -15 17 -13 17 -13 3 5 -14 18 -13 19 3 13 10
-4 21 -7 23 -7 3 0 2 -6 -2 -12 -5 -9 -2 -9 9 1 19 15 22 31 6 31 -5 0 -7 -5
-3 -12 4 -7 3 -8 -4 -4 -6 4 -9 13 -5 22 9 23 35 -4 28 -30 -6 -20 -6 -20 9
-2 9 10 13 22 11 27 -3 4 -1 10 3 13 5 3 9 -5 9 -17 1 -46 4 -63 10 -47 3 8
14 25 23 37 14 18 19 20 23 9 7 -17 28 -16 50 2 13 11 15 10 13 -5 -2 -13 -12
-18 -40 -19 -21 -1 -43 -7 -49 -14 -9 -10 -9 -11 2 -5 7 4 32 8 55 9 22 1 47
5 54 9 6 5 16 6 21 3 5 -3 12 1 15 10 5 13 9 14 21 4 9 -7 13 -15 10 -19 -3
-3 -10 1 -15 9 -8 13 -10 12 -10 -3 0 -13 6 -17 23 -15 12 2 21 -2 20 -8 -1
-6 5 -11 13 -11 12 0 12 3 -1 17 -8 9 -12 20 -8 25 5 4 3 5 -3 2 -7 -4 -14 0
-17 8 -5 12 -2 12 18 3 13 -6 23 -15 22 -21 -3 -13 27 -17 44 -6 11 7 12 12 1
29 -7 11 -8 20 -4 20 5 0 14 -11 20 -25 12 -26 36 -25 46 1 3 9 10 12 16 9 5
-3 16 -3 23 2 20 12 47 14 47 2 0 -6 7 -9 15 -6 8 4 17 2 20 -4 4 -5 1 -8 -6
-7 -6 2 -14 -4 -16 -12 -4 -12 -3 -12 5 -2 5 8 13 14 18 14 5 -1 8 5 6 13 -3
18 15 28 24 14 4 -8 3 -9 -4 -5 -7 4 -12 5 -12 2 0 -3 9 -10 20 -16 17 -9 19
-8 13 7 -3 10 -10 24 -16 31 -6 8 -6 12 2 12 6 0 11 -3 11 -7 0 -5 7 -16 14
-26 14 -18 46 -14 46 5 0 6 -6 6 -14 -1 -8 -7 -17 -8 -20 -3 -3 6 1 15 8 21
10 9 16 9 21 1 5 -8 12 -7 24 4 11 10 21 12 31 6 13 -9 13 -10 0 -10 -13 0
-13 -1 0 -10 10 -6 20 -4 31 6 25 22 34 17 13 -8 -10 -13 -4 -10 14 6 21 20
32 25 32 15 1 -10 4 -9 11 4 9 15 13 16 27 5 16 -12 16 -11 2 6 -14 18 -13 19
2 13 10 -3 22 1 30 11 7 9 8 13 2 9 -7 -4 -15 0 -18 8 -4 13 -2 13 14 5 26
-14 43 -13 34 3 -4 6 -4 9 0 5 5 -4 17 2 28 12 12 11 27 16 37 12 14 -5 14 -3
3 10 -10 13 -10 18 -1 24 7 4 9 3 5 -4 -3 -6 1 -15 10 -20 15 -8 14 -11 -7
-18 -13 -4 -27 -8 -31 -9 -5 0 -8 -4 -7 -9 0 -5 -5 -12 -13 -17 -9 -6 -6 -8 9
-6 12 0 21 4 21 7 -2 18 4 23 12 10 8 -13 10 -12 10 3 0 10 5 15 10 12 6 -3
10 -1 10 5 0 6 4 9 9 6 4 -3 7 9 5 27 -3 21 -1 27 5 18 5 -7 14 -10 20 -7 6 4
8 12 5 18 -4 6 -2 8 4 4 6 -3 13 -2 16 2 9 15 45 7 62 -14 14 -18 15 -18 4 5
-10 19 -9 26 5 40 10 9 15 10 11 4 -8 -15 10 -18 19 -4 3 6 -3 15 -12 21 -16
10 -16 11 -1 6 10 -3 18 2 21 12 4 15 5 15 6 -1 1 -11 6 -15 13 -11 7 4 8 3 4
-5 -4 -6 -13 -8 -19 -4 -7 4 -6 -1 2 -10 15 -19 24 -16 27 11 2 9 8 18 13 20
6 2 11 8 11 13 0 6 -5 7 -12 3 -7 -4 -8 -3 -4 4 9 16 36 3 29 -14 -3 -8 0 -14
7 -14 6 0 8 4 5 10 -3 5 -2 10 4 10 5 0 12 -6 14 -12 4 -10 6 -10 6 -1 1 6 -3
15 -9 18 -15 9 -12 25 6 25 8 0 12 5 9 10 -4 6 -11 7 -17 4 -7 -4 -8 -2 -4 5
6 9 14 8 34 -5 26 -17 27 -17 11 2 -9 10 -19 26 -23 34 -7 13 -6 13 6 0 19
-22 53 -47 45 -33 -4 6 -3 14 3 18 6 4 8 10 5 15 -3 5 4 11 15 15 11 3 20 11
20 17 0 7 -4 7 -13 -1 -8 -6 -16 -9 -19 -6 -3 3 -11 -1 -18 -10 -9 -11 -9 -15
-1 -15 7 0 9 -5 5 -11 -4 -8 -9 -7 -15 2 -12 20 27 58 56 54 16 -1 22 2 18 11
-2 7 -12 10 -21 7 -22 -8 -13 1 17 17 15 7 21 8 17 1 -4 -6 -2 -19 4 -28 9
-16 10 -15 5 4 -5 19 -3 22 12 17 14 -4 15 -4 4 4 -15 11 -6 36 10 26 5 -3 9
-2 8 3 -1 4 2 19 6 32 l8 24 16 -22 c16 -21 17 -21 17 -2 0 11 -4 17 -9 14 -5
-3 -8 1 -6 8 3 28 -1 40 -13 33 -7 -4 -8 -3 -4 5 4 6 12 9 17 5 6 -3 8 6 4 23
-5 25 -4 26 4 6 11 -25 23 -31 19 -10 -2 6 3 11 10 9 8 -1 11 2 7 8 -3 6 -10
8 -14 6 -4 -3 -12 4 -19 14 -7 13 -8 21 -2 25 6 4 9 1 8 -7 -2 -8 9 -13 30
-15 29 -1 32 1 26 20 -6 20 -5 21 12 7 18 -14 18 -14 4 5 -27 35 -37 44 -46
37 -4 -4 0 5 9 21 10 15 14 27 11 27 -4 0 1 9 10 19 17 18 17 20 -1 30 -10 6
-14 11 -10 11 4 0 19 -7 32 -16 14 -9 25 -12 25 -6 0 5 -7 12 -15 16 -16 6
-10 36 7 36 6 0 5 -6 -2 -15 -9 -10 -9 -15 -1 -15 6 0 11 5 11 11 0 5 6 7 13
3 6 -4 3 2 -7 14 -11 12 -16 22 -11 22 4 0 2 6 -4 14 -9 10 -8 16 3 26 9 6 20
9 25 5 7 -3 8 0 5 9 -3 9 -1 16 5 16 6 0 11 5 11 11 0 5 -4 7 -10 4 -6 -3 -10
1 -10 9 0 9 -5 16 -12 16 -6 0 -8 3 -5 6 4 4 13 1 21 -5 11 -9 16 -9 22 0 4 7
3 9 -4 5 -6 -3 -13 -2 -17 4 -6 9 9 15 30 10 5 -1 1 9 -10 21 -17 19 -17 21
-3 16 13 -4 16 -1 13 14 -2 10 -7 24 -11 31 -5 8 -2 9 10 5 11 -4 15 -3 11 4
-11 17 -28 5 -32 -22 -2 -13 -4 -29 -5 -36 -1 -6 -8 -9 -16 -6 -9 4 -10 8 -2
13 6 3 8 14 5 22 -4 9 -2 19 4 23 8 4 8 12 0 27 -8 15 -8 19 0 14 14 -9 14 0
0 25 -15 28 -20 61 -8 54 5 -4 9 1 9 10 0 10 -5 13 -12 9 -7 -4 -8 -3 -4 5 4
6 0 14 -9 17 -13 5 -14 9 -4 15 7 4 14 17 16 29 2 12 -1 19 -6 15 -5 -3 -13 0
-17 6 -4 7 -3 9 4 5 6 -3 13 -2 17 3 3 6 12 8 20 5 9 -4 13 1 12 14 0 12 -5
18 -9 16 -5 -3 -6 -9 -4 -13 3 -3 -4 -7 -14 -7 -18 0 -18 2 -3 18 9 10 13 21
10 25 -4 3 -2 13 5 20 14 17 19 55 6 47 -5 -4 -7 -12 -4 -20 7 -19 -8 -26 -36
-14 l-23 11 23 -5 c19 -4 21 -2 11 10 -7 8 -18 13 -26 10 -11 -4 -11 -1 -3 14
6 11 13 20 16 20 3 0 2 -5 -2 -12 -5 -7 -3 -8 6 -3 9 5 11 4 6 -3 -4 -7 -3
-12 2 -12 6 0 12 7 16 15 3 8 0 14 -7 12 -7 -1 -11 4 -9 11 1 8 -2 11 -8 7 -5
-3 -10 -1 -10 5 0 6 -6 8 -12 4 -7 -4 -10 -3 -5 1 4 5 -1 18 -10 29 -17 20
-17 20 0 7 12 -9 17 -10 17 -2 0 6 -10 16 -22 22 -21 9 -21 9 4 4 21 -4 30 0
38 17 10 21 10 21 -3 6 -15 -19 -32 -25 -22 -8 3 6 -1 13 -9 16 -9 3 -16 10
-16 15 0 6 7 6 18 0 14 -7 19 -6 19 4 0 7 -6 11 -14 8 -9 -4 -11 0 -6 13 6 18
5 18 -18 -1 -13 -11 -21 -16 -17 -11 4 5 0 15 -10 23 -15 13 -15 13 6 3 18 -9
22 -8 22 5 0 9 -4 14 -9 10 -5 -3 -13 0 -17 6 -4 8 -3 9 4 5 7 -4 12 -2 12 4
0 6 4 9 9 6 5 -4 6 4 3 16 -5 19 -7 20 -10 6 -2 -10 -7 -18 -12 -18 -12 0 -28
32 -23 46 2 6 -4 17 -13 25 -15 12 -16 11 -10 -11 6 -21 5 -22 -4 -7 -9 14 -9
22 0 33 9 10 9 14 1 14 -6 0 -11 5 -11 11 0 8 5 8 15 -1 8 -7 13 -16 10 -20
-6 -10 34 -25 42 -16 4 3 -1 6 -9 6 -17 0 -31 26 -23 41 4 5 -1 6 -10 3 -11
-5 -18 0 -22 15 -3 11 -9 21 -15 21 -5 0 -4 -8 2 -19 7 -14 7 -22 0 -26 -6 -4
-10 -3 -9 2 3 19 -2 34 -9 29 -5 -3 -9 1 -9 9 0 8 4 12 9 9 4 -3 8 0 8 6 0 6
5 8 12 4 7 -4 8 -3 4 5 -4 6 -11 9 -16 6 -5 -3 -21 1 -34 10 -14 9 -27 15 -30
13 -2 -2 -8 0 -11 4 -4 4 4 5 19 2 21 -3 24 -1 19 12 -4 11 -2 15 4 11 5 -3
10 0 10 8 0 12 -3 12 -16 2 -12 -10 -14 -9 -8 6 4 10 3 16 -2 12 -5 -3 -12 -1
-15 4 -7 10 -25 9 -43 -2 -10 -6 -11 -2 -4 32 1 2 8 -2 16 -9 10 -9 15 -9 15
-1 0 6 -5 11 -11 11 -5 0 -7 5 -3 11 4 7 -1 7 -16 -1 -18 -10 -24 -9 -31 1 -9
15 -3 29 13 29 6 0 7 -8 3 -17 -5 -15 -4 -16 7 -5 11 11 8 17 -14 34 -27 19
-41 47 -16 32 7 -4 8 -3 4 5 -6 9 -14 8 -32 -4 -13 -8 -24 -13 -24 -9 0 4 -7
1 -16 -6 -8 -8 -14 -9 -13 -4 1 5 1 16 0 24 -1 13 -2 13 -11 0 -6 -9 -10 -10
-10 -3 0 18 19 26 26 10 8 -21 30 -16 31 7 1 12 -1 15 -4 9 -3 -7 -9 -13 -14
-13 -6 0 -8 4 -5 8 2 4 -6 9 -20 10 -15 1 -24 -3 -24 -13 0 -7 -4 -17 -10 -20
-12 -7 -2 23 14 44 9 12 7 12 -12 2 -20 -11 -26 -10 -36 5 -16 21 -48 27 -57
12 -4 -6 -10 -1 -14 12 -6 18 -9 20 -17 9 -8 -11 -9 -10 -4 4 3 9 9 25 12 35
5 14 4 15 -5 2 -8 -11 -11 -12 -11 -2 0 7 -4 10 -10 7 -5 -3 -10 2 -11 12 0
13 -2 14 -6 4 -3 -8 1 -19 10 -26 11 -7 13 -16 6 -26 -7 -11 -9 -11 -9 4 0 9
-5 17 -11 17 -5 0 -7 -5 -3 -12 4 -6 3 -8 -3 -5 -6 4 -9 17 -8 30 2 13 -2 24
-9 24 -6 0 -17 2 -25 4 -7 2 -16 -3 -18 -11 -4 -13 -3 -13 6 0 8 11 11 12 11
2 0 -7 4 -11 9 -7 5 3 12 1 15 -4 8 -12 -14 -26 -23 -15 -10 15 -32 15 -49 2
-12 -10 -14 -10 -8 0 4 6 2 12 -3 12 -6 0 -11 5 -11 11 0 8 4 8 13 1 10 -8 16
-6 26 10 7 11 8 17 2 14 -5 -4 -12 -2 -16 4 -3 5 -11 10 -18 10 -6 0 -2 -6 9
-14 18 -14 18 -15 -3 -13 -20 1 -27 8 -25 28 1 3 -6 6 -13 6 -11 0 -12 -4 -4
-14 14 -17 -3 -17 -20 0 -11 10 -12 8 -2 -10 9 -19 8 -20 -11 -15 -16 4 -19 2
-13 -8 5 -9 4 -11 -4 -6 -9 6 -9 11 0 22 9 11 9 14 -1 14 -9 0 -9 4 1 18 12
15 12 16 -2 5 -9 -7 -20 -9 -25 -5 -4 4 -3 0 4 -10 8 -10 9 -19 3 -22 -5 -4
-12 3 -16 14 -6 19 -7 19 -32 -5 -15 -13 -30 -22 -35 -19 -4 3 -8 0 -8 -5 0
-6 -5 -11 -11 -11 -8 0 -8 5 1 15 12 15 3 21 -24 16 -5 -1 -6 4 -3 12 3 7 -1
14 -8 14 -10 0 -11 -5 -4 -18 13 -24 12 -49 -1 -29 -9 14 -11 13 -14 -9 0 -5
-5 -13 -10 -18 -5 -4 -6 -3 -2 4 3 6 2 14 -4 18 -6 3 -13 -1 -16 -10 -6 -14
-8 -14 -19 1 -16 22 -42 26 -49 8 -5 -12 -2 -12 15 -3 13 6 19 7 15 1 -3 -6 0
-13 6 -16 7 -3 2 -3 -11 0 -15 4 -21 2 -17 -4 3 -6 1 -14 -5 -18 -8 -4 -9 -3
-5 4 4 7 2 13 -3 13 -26 3 -30 4 -37 12 -4 4 0 7 9 7 9 0 19 4 22 10 4 6 -1 7
-12 3 -32 -11 -34 -14 -21 -31 11 -13 10 -15 -4 -9 -15 5 -16 2 -8 -18 7 -18
5 -27 -8 -37 -15 -12 -16 -11 -3 5 9 12 10 17 2 17 -7 0 -9 6 -5 13 5 9 4 9
-5 1 -7 -6 -13 -20 -14 -31 -1 -15 -7 -19 -25 -17 -23 2 -23 2 -7 -23 10 -14
12 -23 7 -19 -17 10 -24 -12 -11 -35 9 -17 8 -20 -2 -14 -9 6 -11 2 -7 -13 3
-12 2 -20 -2 -19 -4 1 -7 -1 -7 -4 1 -3 -3 -12 -10 -20 -7 -9 -8 -20 -3 -28 4
-8 6 -20 3 -28 -3 -7 0 -13 7 -13 6 0 8 4 5 10 -3 6 1 7 9 4 9 -3 13 -11 9
-17 -4 -6 0 -8 11 -4 10 4 15 3 11 -3 -3 -6 -18 -8 -33 -4 l-27 5 24 -14 c14
-8 32 -13 40 -10 14 4 14 3 1 -5 -8 -6 -19 -8 -25 -4 -6 3 -6 0 1 -9 6 -8 10
-22 9 -31 -2 -11 2 -15 11 -11 17 6 18 15 2 32 -11 10 -10 11 5 6 19 -8 22
-31 7 -70 -7 -17 -7 -24 0 -20 6 3 10 13 10 21 0 8 4 13 10 9 5 -3 6 -13 3
-23 -6 -16 -6 -16 11 1 15 15 36 16 36 1 0 -3 -4 -3 -9 0 -4 3 -13 -6 -19 -19
-8 -18 -8 -26 0 -31 7 -5 8 -2 3 6 -6 10 -4 12 7 7 9 -3 21 0 29 6 7 7 4 -1
-6 -18 -16 -25 -16 -28 -2 -16 15 12 17 11 17 -3 0 -9 5 -16 10 -16 7 0 7 6 0
19 -5 11 -6 22 -1 25 12 8 20 -4 14 -20 -3 -8 -1 -14 5 -14 6 0 12 5 14 12 3
9 6 9 12 0 4 -7 2 -12 -5 -12 -8 0 -6 -5 5 -13 16 -12 16 -13 -3 -13 -11 0
-18 3 -15 7 2 4 -6 4 -18 1 -19 -5 -20 -7 -5 -10 9 -2 15 -7 12 -12 -10 -16
16 -22 32 -8 15 11 16 11 10 -5 -5 -12 -3 -16 5 -11 7 5 9 2 6 -7 -3 -8 0 -25
7 -38 10 -20 13 -21 18 -7 5 11 3 15 -5 10 -7 -4 -8 -3 -4 4 4 7 2 12 -5 12
-7 0 -10 2 -7 5 11 11 39 -8 33 -23 -4 -11 -2 -12 8 -4 10 9 14 8 14 -3 0 -8
-4 -12 -8 -10 -3 3 -12 -2 -19 -10 -7 -8 -17 -12 -23 -8 -6 3 -7 1 -3 -6 4 -6
11 -9 15 -6 5 2 17 -5 27 -17 19 -21 19 -21 -1 -14 -15 5 -17 4 -8 -5 6 -6 16
-8 21 -5 13 8 8 41 -6 41 -6 0 -14 3 -18 8 -4 4 4 6 19 5 14 -1 23 -6 21 -10
-3 -4 1 -8 8 -8 9 0 9 -3 -2 -10 -8 -5 -11 -10 -7 -10 5 0 0 -16 -12 -36 -12
-19 -16 -32 -11 -29 6 4 18 1 27 -7 12 -9 15 -9 9 0 -4 6 -3 12 2 12 6 0 13
-7 16 -16 3 -8 11 -12 17 -8 8 4 9 3 5 -5 -6 -9 -11 -9 -22 0 -11 9 -14 9 -14
-1 0 -9 -4 -9 -17 1 -15 13 -15 12 -2 -8 9 -16 16 -19 21 -10 8 12 13 -12 8
-42 -2 -13 1 -13 17 -1 17 14 17 14 1 -6 -25 -28 -25 -51 0 -33 16 13 16 12 1
-6 -9 -11 -14 -26 -12 -32 3 -7 -2 -16 -11 -19 -9 -3 -16 -11 -16 -16 0 -6 7
-8 15 -4 8 3 15 1 15 -4 0 -13 -23 -13 -36 0 -7 7 -11 6 -11 -4 0 -8 4 -13 9
-10 4 3 8 0 8 -6 0 -6 4 -9 9 -6 5 3 14 -1 20 -8 9 -10 9 -16 1 -21 -6 -4 -9
-1 -8 7 2 7 -3 12 -10 10 -7 -1 -23 3 -35 9 -14 6 -9 -1 13 -21 23 -20 27 -27
13 -20 -20 9 -23 8 -23 -11 0 -12 -3 -19 -7 -16 -3 4 -12 2 -19 -4 -11 -9 -10
-15 3 -35 12 -18 12 -24 3 -22 -7 2 -16 -8 -20 -22 -7 -27 -24 -28 -55 -2 -11
9 -6 1 10 -18 17 -19 26 -32 21 -28 -5 4 -15 0 -22 -10 -12 -16 -14 -16 -29 3
-9 11 -14 14 -10 8 3 -7 1 -14 -4 -14 -6 -1 -16 -2 -21 -3 -6 0 -15 -8 -20
-16 -8 -12 -10 -12 -10 -1 0 8 -3 12 -6 8 -3 -3 -3 -11 2 -18 5 -9 10 -9 18 2
6 8 20 15 31 17 18 2 18 1 -3 -11 -12 -7 -20 -16 -17 -20 3 -4 2 -5 -2 -2 -3
3 -13 -1 -21 -8 -13 -10 -14 -9 -8 2 6 9 5 12 -5 9 -8 -3 -13 -11 -11 -17 1
-6 -2 -11 -7 -11 -5 0 -8 11 -8 25 0 13 3 23 7 20 3 -2 7 3 7 12 0 13 -4 12
-17 -5 -10 -12 -21 -18 -25 -14 -5 4 -5 1 -1 -5 4 -7 2 -13 -3 -13 -6 0 -11 5
-11 10 0 6 -5 10 -11 10 -8 0 -7 -5 1 -15 7 -9 19 -14 27 -11 7 3 13 1 13 -5
0 -7 -10 -9 -25 -5 -20 5 -23 3 -19 -11 4 -12 3 -14 -3 -6 -5 7 -20 12 -33 12
-50 1 -60 2 -65 10 -2 5 7 7 21 5 24 -2 25 -1 10 15 -9 10 -13 20 -10 24 3 3
-1 4 -10 3 -8 -1 -19 -6 -23 -11 -4 -4 -3 -5 3 -2 7 4 18 -1 25 -11 11 -14 11
-15 0 -5 -7 6 -20 9 -27 6 -8 -3 -14 1 -14 10 0 9 9 18 19 22 11 3 22 12 25
20 4 10 -4 9 -29 -5 -19 -11 -35 -15 -35 -10 0 6 5 10 11 10 8 0 9 4 0 13 -6
8 -8 17 -4 20 3 4 1 7 -5 7 -7 0 -12 5 -12 12 0 6 3 8 7 5 3 -4 11 -2 18 3 8
7 12 5 12 -5 0 -8 -3 -12 -7 -10 -4 2 -7 -2 -7 -10 0 -8 5 -11 10 -8 6 3 7 1
3 -5 -5 -8 -1 -10 9 -5 9 3 13 9 8 12 -5 3 -9 15 -8 26 0 16 -6 20 -29 19 -23
0 -25 2 -12 11 9 7 13 15 9 18 -3 4 0 13 7 22 15 18 0 20 -19 3 -11 -11 -12
-10 -5 2 13 21 12 73 -1 82 -6 5 -4 8 5 8 12 0 12 2 2 9 -11 7 -10 9 3 14 9 4
13 3 10 -3 -3 -6 -1 -10 4 -10 17 0 13 27 -4 34 -8 3 -15 13 -15 21 0 9 4 14
9 10 5 -3 13 0 17 6 4 7 3 9 -4 5 -6 -3 -13 -2 -17 4 -3 5 0 10 7 10 10 0 10
2 -1 9 -17 11 3 25 22 15 9 -5 9 -4 1 5 -9 10 -17 10 -32 2 -25 -13 -43 -14
-22 -1 8 5 15 19 15 32 0 17 5 22 20 20 26 -5 14 7 -13 13 -32 6 -60 27 -55
42 3 7 9 13 14 13 4 0 6 -6 3 -14 -3 -8 -1 -17 5 -21 7 -4 9 1 5 12 -5 16 -4
16 10 -1 14 -17 16 -18 16 -3 0 9 -5 17 -11 17 -5 0 -7 5 -4 10 4 6 1 9 -6 8
-6 -2 -14 3 -17 11 -3 9 0 11 9 6 11 -6 11 -5 2 5 -6 7 -9 20 -6 29 4 9 3 13
-1 10 -4 -4 -9 -17 -11 -29 -6 -31 -22 -47 -20 -21 1 12 4 24 8 27 12 12 8 24
-9 24 -8 0 -13 -4 -10 -9 7 -11 -20 -8 -31 3 -4 4 -1 6 7 4 8 -2 14 2 13 9 -2
8 7 11 25 8 20 -2 29 1 29 11 0 10 -4 11 -14 2 -7 -6 -17 -8 -20 -4 -4 4 -1
11 7 16 10 7 11 10 3 10 -7 0 -13 8 -13 17 0 15 -2 14 -15 -3 -14 -18 -15 -18
-6 6 7 21 3 30 -30 62 -22 21 -35 38 -29 38 5 0 10 5 10 11 0 5 -3 8 -8 5 -4
-2 -6 14 -5 37 1 26 -1 37 -6 28 -5 -7 -7 -21 -6 -30 1 -9 0 -10 -2 -3 -3 7
-9 10 -14 6 -5 -3 -7 -10 -4 -15 3 -5 -1 -6 -10 -3 -13 5 -12 9 6 25 23 20 20
37 -3 23 -26 -17 -38 -14 -25 7 7 11 14 14 18 8 4 -6 9 -4 13 7 3 9 4 19 1 22
-3 3 -5 -1 -5 -8 0 -7 -3 -10 -7 -7 -3 4 -12 2 -20 -5 -8 -6 -13 -7 -12 -2 4
22 -2 35 -13 28 -7 -4 -8 -3 -4 5 6 9 11 9 22 0 12 -10 17 -9 27 1 10 10 9 12
-5 7 -14 -5 -24 5 -43 41 -13 26 -24 41 -25 35 0 -7 -8 -13 -17 -13 -15 0 -16
2 -3 10 13 8 12 10 -2 10 -10 0 -18 -5 -18 -12 0 -6 -3 -8 -6 -5 -4 4 -1 14 7
23 13 16 11 17 -13 10 -18 -4 -28 -2 -28 4 0 6 5 8 10 5 15 -9 12 5 -5 22 -9
9 -13 24 -10 37 5 18 4 18 -10 -4 -13 -21 -15 -22 -10 -4 3 13 -1 26 -12 35
-11 9 -14 10 -9 2 5 -9 0 -13 -13 -13 -12 0 -21 5 -21 11 0 5 5 7 10 4 6 -3
10 -1 10 4 0 17 -18 13 -29 -6 -14 -24 -14 -7 0 19 9 16 8 19 -3 12 -21 -13
-48 -15 -48 -3 0 5 -6 7 -12 3 -9 -6 -9 -3 0 9 14 17 7 42 -9 32 -8 -6 -13 9
-10 29 1 5 -4 4 -12 -2 -11 -10 -17 -9 -26 1 -6 8 -9 17 -6 21 3 3 0 2 -7 -4
-16 -13 -48 16 -42 38 5 15 4 15 -5 0 -13 -20 -45 -16 -75 9 -12 11 -16 12 -9
3 8 -12 7 -18 -5 -30 -14 -13 -15 -12 -9 2 6 18 -10 35 -30 32 -7 -1 -27 -2
-44 -3 -16 0 -28 -5 -24 -10 3 -5 0 -13 -7 -17 -7 -4 -10 -4 -6 1 4 4 3 14 -4
22 -8 11 -8 17 2 26 10 10 12 8 7 -6 -4 -10 -3 -16 2 -12 6 3 9 14 8 25 -1 13
-5 16 -13 10 -6 -6 -15 -6 -19 -2 -5 4 -5 2 -1 -5 4 -8 -6 -11 -39 -10 -33 1
-45 5 -46 17 0 9 -3 7 -9 -6 -9 -23 -30 -41 -30 -27 0 5 6 15 13 23 10 12 9
12 -5 1 -14 -10 -18 -9 -28 6 -10 16 -11 16 -6 1z m10 -27 c-2 -2 1 -10 7 -17
7 -8 7 -14 -1 -19 -6 -4 -9 -1 -8 7 2 7 -4 13 -12 13 -8 0 -13 -7 -12 -15 2
-8 0 -11 -5 -7 -4 5 -8 12 -8 15 0 4 -3 12 -7 17 -4 7 4 11 22 10 16 0 27 -2
24 -4z m98 -11 c-4 -12 -2 -13 9 -2 20 18 29 15 27 -12 -1 -14 -6 -22 -10 -20
-4 3 -4 12 -1 22 5 14 3 15 -7 5 -9 -8 -19 -9 -32 -2 -12 6 -25 6 -40 -1 -21
-10 -21 -10 -6 3 10 8 16 16 14 18 -3 2 8 4 24 4 21 1 26 -3 22 -15z m1405 -2
c0 -13 -1 -17 -4 -10 -3 6 -10 9 -16 5 -7 -4 -6 1 2 10 17 21 17 21 18 -5z
m-1610 -7 c-1 -12 -5 -17 -12 -12 -5 5 -18 7 -28 6 -9 -2 -15 1 -11 6 3 5 9 7
14 4 5 -3 11 -1 15 5 10 17 24 11 22 -9z m354 -11 c6 0 7 5 3 12 -4 7 -3 8 4
4 9 -5 9 -13 2 -27 -6 -10 -13 -19 -16 -19 -3 0 -3 4 1 9 3 5 1 12 -5 16 -5 3
-10 12 -9 18 0 9 2 9 6 0 2 -7 9 -13 14 -13z m1369 10 c0 -5 -4 -10 -10 -10
-5 0 -10 5 -10 10 0 6 5 10 10 10 6 0 10 -4 10 -10z m-1831 -7 c-4 -22 2 -33
14 -27 6 4 8 3 4 -1 -14 -16 -36 -14 -30 3 4 10 2 13 -5 8 -7 -4 -12 -3 -12 3
0 8 9 14 28 20 1 1 1 -2 1 -6z m426 -11 c-3 -3 -11 0 -18 7 -9 10 -8 11 6 5
10 -3 15 -9 12 -12z m1320 9 c3 -5 2 -12 -3 -15 -5 -3 -9 1 -9 9 0 17 3 19 12
6z m-1195 -16 c14 1 35 -8 48 -19 12 -11 22 -16 22 -12 0 5 7 3 15 -4 8 -7 12
-16 9 -22 -3 -5 -12 -4 -20 3 -11 9 -14 9 -14 -1 0 -7 -8 -2 -18 11 -20 24
-52 34 -52 16 0 -6 -7 -2 -15 9 -10 13 -14 15 -15 5 0 -8 -2 -12 -5 -9 -3 3
-2 13 1 22 4 10 10 14 13 9 3 -5 17 -8 31 -8z m-590 -9 c0 -3 -4 -8 -10 -11
-5 -3 -10 -1 -10 4 0 6 5 11 10 11 6 0 10 -2 10 -4z m1507 -9 c0 -8 -6 -14
-14 -14 -9 0 -10 4 -2 14 6 7 12 13 14 13 1 0 2 -6 2 -13z m-1610 -13 c0 -7
-5 -15 -12 -17 -6 -3 -11 3 -11 12 0 10 5 18 11 18 7 0 12 -6 12 -13z m835
-38 c7 4 8 2 4 -5 -6 -8 -12 -9 -20 -2 -7 6 -16 8 -20 4 -4 -4 -4 1 0 11 6 16
8 17 16 2 5 -9 14 -13 20 -10z m738 -20 c0 -3 -4 -8 -10 -11 -5 -3 -10 -1 -10
4 0 6 5 11 10 11 6 0 10 -2 10 -4z m816 -74 c-6 -5 -36 23 -36 34 0 4 9 -1 20
-11 11 -10 18 -20 16 -23z m-1434 -7 c-2 -14 -8 -28 -13 -31 -5 -3 -7 2 -4 10
3 9 7 23 10 31 7 24 13 17 7 -10z m1412 -1 c3 -8 2 -12 -4 -9 -6 3 -10 10 -10
16 0 14 7 11 14 -7z m-1393 -47 c-10 -9 -11 -8 -5 6 3 10 9 15 12 12 3 -3 0
-11 -7 -18z m-1236 -18 c-5 -27 -15 -37 -16 -18 0 8 -4 4 -9 -8 -5 -13 -14
-23 -20 -23 -6 0 -4 10 5 23 8 13 12 27 8 32 -5 4 -3 5 4 1 6 -3 14 -2 18 4
10 16 14 12 10 -11z m1763 -19 c7 -11 11 -20 9 -20 -2 0 -12 9 -22 20 -10 11
-14 20 -9 20 5 0 15 -9 22 -20z m975 -4 c4 -10 1 -13 -9 -9 -15 6 -19 23 -5
23 5 0 11 -7 14 -14z m-1396 -12 c-3 -4 1 -13 9 -21 15 -16 10 -34 -9 -32 -8
0 -8 2 1 6 9 4 7 10 -8 23 -15 13 -17 19 -8 23 19 8 22 8 15 1z m-1347 -8 c0
-2 -8 -10 -17 -17 -16 -13 -17 -12 -4 4 13 16 21 21 21 13z m1852 -115 c8 11
9 11 6 1 -4 -16 -22 -18 -24 -2 -2 7 -1 6 3 -1 4 -8 8 -7 15 2z m62 -39 c3 -5
-1 -9 -9 -9 -8 0 -12 4 -9 9 3 4 7 8 9 8 2 0 6 -4 9 -8z m-34 -22 c0 -5 -2
-10 -4 -10 -3 0 -8 5 -11 10 -3 6 -1 10 4 10 6 0 11 -4 11 -10z m-1980 -20 c0
-5 -2 -10 -4 -10 -3 0 -8 5 -11 10 -3 6 -1 10 4 10 6 0 11 -4 11 -10z m-25
-23 c1 -7 7 -11 14 -9 7 1 9 -2 6 -9 -9 -13 -28 3 -31 27 -1 9 1 13 4 9 4 -4
7 -12 7 -18z m1614 -51 c0 -6 -3 -5 -6 2 -2 6 -8 10 -12 8 -4 -3 -7 4 -7 15 0
19 1 19 13 3 7 -10 13 -23 12 -28z m461 4 c0 -5 -5 -10 -11 -10 -5 0 -7 5 -4
10 3 6 8 10 11 10 2 0 4 -4 4 -10z m51 -5 c5 4 6 -1 2 -10 -5 -13 -7 -14 -14
-3 -5 7 -8 18 -8 23 0 6 3 4 6 -3 2 -6 9 -10 14 -7z m-466 -55 c-3 -5 -14 -10
-23 -9 -14 0 -13 2 3 9 27 11 27 11 20 0z m-965 -65 c-9 -11 -7 -14 9 -12 12
1 21 6 21 12 0 5 5 3 10 -5 9 -13 10 -13 10 0 0 13 1 13 10 0 5 -8 10 -19 10
-25 0 -5 -5 -3 -10 5 -5 8 -10 10 -10 4 0 -6 7 -17 15 -24 8 -7 13 -15 11 -19
-3 -4 5 -7 16 -7 l20 0 -20 14 c-19 13 -20 42 -1 42 4 0 5 -7 2 -17 -4 -10 -2
-14 4 -10 6 4 14 0 17 -9 3 -8 10 -13 16 -9 5 3 22 0 37 -8 31 -15 77 -12 52
4 -9 5 -9 9 -2 9 6 0 23 -13 36 -30 24 -28 45 -42 32 -20 -3 6 1 7 9 4 9 -3
16 -10 16 -16 0 -5 5 -6 10 -3 6 4 9 3 8 -2 -4 -12 24 -83 32 -83 3 0 6 9 7
20 1 11 -3 19 -9 17 -6 -1 -12 6 -13 16 -5 26 2 21 35 -25 16 -22 30 -36 30
-29 0 7 5 9 11 5 8 -4 7 -9 -2 -15 -7 -4 -10 -11 -6 -15 3 -4 12 -2 20 4 10 9
13 6 14 -11 0 -12 -1 -16 -4 -9 -4 9 -9 10 -18 2 -9 -8 -16 -3 -25 21 -11 25
-15 28 -22 15 -5 -10 -5 -23 1 -34 8 -13 11 -14 11 -2 0 12 3 11 11 -3 6 -9
14 -15 20 -12 5 4 9 1 9 -5 0 -6 4 -8 10 -5 6 3 7 -1 4 -9 -3 -9 -11 -13 -17
-9 -6 4 -7 1 -3 -6 6 -9 13 -8 29 6 21 17 21 17 7 0 -12 -16 -12 -20 0 -27 8
-5 18 -6 22 -4 4 3 8 1 8 -4 0 -5 -10 -14 -22 -21 -21 -11 -21 -11 7 -6 19 4
25 2 17 -3 -10 -7 -10 -11 3 -22 8 -7 15 -17 15 -23 0 -6 -7 -2 -16 9 -15 18
-15 18 -8 -5 3 -14 2 -21 -3 -18 -6 4 -9 -6 -8 -20 0 -15 6 -28 13 -31 7 -2
12 -11 12 -20 0 -15 -2 -15 -10 -2 -5 8 -10 11 -10 5 0 -5 5 -17 10 -25 8 -13
11 -13 22 -1 9 10 10 12 1 7 -9 -5 -11 -2 -7 8 8 21 23 11 21 -14 -1 -10 -3
-17 -6 -15 -2 3 -10 -3 -17 -13 -16 -22 0 -53 24 -46 14 5 15 4 2 -5 -11 -7
-20 -5 -37 11 -13 12 -23 17 -23 11 0 -6 6 -13 13 -16 9 -3 9 -9 -1 -26 -7
-12 -10 -27 -6 -34 4 -7 4 -9 -1 -5 -4 4 -15 2 -24 -5 -14 -10 -14 -10 -4 4 7
9 10 19 6 22 -3 4 0 7 8 7 12 0 11 2 -1 11 -12 9 -11 10 5 4 15 -5 17 -3 8 6
-11 11 -37 4 -29 -9 2 -4 -2 -18 -10 -32 -7 -14 -13 -19 -14 -12 0 6 -3 11 -7
11 -26 -4 -34 3 -28 24 3 12 3 18 -2 12 -4 -5 -21 -11 -37 -12 -16 -1 -33 -8
-37 -14 -4 -6 -12 -8 -18 -5 -6 4 -9 12 -6 17 10 15 -13 10 -30 -7 -15 -16
-16 -16 -13 2 3 19 -1 20 -32 11 -8 -2 -12 -2 -7 0 4 3 5 9 2 14 -4 5 2 6 12
3 11 -3 9 0 -5 8 -12 8 -20 16 -17 19 3 3 -1 6 -7 7 -22 2 -42 7 -54 14 -12 8
-40 5 -50 -5 -4 -4 -12 -7 -18 -7 -6 0 -4 5 4 10 13 9 13 10 0 11 -26 1 -48 7
-65 16 -14 8 -12 11 11 22 24 11 26 10 22 -7 -3 -11 0 -19 8 -19 7 0 12 3 10
6 -2 3 -6 14 -9 23 -6 16 -9 16 -40 3 -32 -13 -34 -13 -50 14 -13 22 -14 31
-4 41 10 12 9 12 -4 2 -19 -14 -30 -6 -22 16 3 10 -6 4 -22 -13 -15 -17 -23
-21 -17 -10 6 12 7 26 1 37 -6 10 -5 19 1 23 5 3 10 1 10 -4 0 -6 5 -11 11
-11 8 0 8 4 -1 15 -6 8 -9 20 -5 27 4 7 -4 0 -18 -17 -27 -33 -39 -30 -39 9 0
16 -5 23 -12 19 -6 -3 -8 -3 -4 2 4 4 3 14 -3 22 -9 11 -15 11 -28 1 -11 -8
-10 -5 3 9 17 21 43 23 31 3 -3 -4 3 -11 12 -14 10 -4 14 -4 10 0 -4 4 -2 13
3 20 8 9 6 12 -6 10 -9 0 -18 7 -19 17 -2 9 1 17 6 17 5 0 9 5 9 11 0 5 -4 8
-9 4 -5 -3 -12 -1 -16 4 -3 5 3 14 12 20 10 5 16 12 13 14 -3 3 -14 -1 -24 -9
-16 -11 -17 -16 -6 -29 8 -10 9 -15 1 -15 -6 0 -11 5 -11 11 0 5 -5 7 -11 3
-8 -5 -8 -1 0 14 14 27 14 35 -1 26 -9 -5 -9 -2 1 9 11 13 11 17 1 17 -8 0
-11 2 -8 5 3 3 13 2 22 -1 14 -5 15 -9 4 -15 -8 -5 -9 -9 -2 -9 6 0 18 8 25
17 12 14 12 16 0 9 -9 -6 -12 -5 -9 5 3 8 10 13 15 12 5 -1 10 4 10 12 0 8 -5
11 -10 8 -5 -3 -7 0 -5 8 3 8 11 13 17 11 7 -1 10 2 6 8 -5 7 -11 8 -19 1 -22
-18 -34 3 -14 24 13 13 17 14 13 5 -4 -11 1 -16 13 -16 10 0 19 5 20 11 2 26
8 40 16 42 5 1 13 7 17 15 7 10 9 10 9 -2 0 -13 1 -13 11 0 9 13 10 13 6 0 -2
-8 -9 -15 -15 -15 -6 0 -17 -6 -24 -14 -10 -10 -10 -12 0 -7 7 5 12 1 13 -11
0 -16 1 -16 8 2 5 11 12 21 17 21 26 4 54 17 54 26 0 5 -4 7 -9 4 -5 -3 -11 0
-14 8 -3 8 1 13 11 12 9 0 16 5 14 12 -1 8 2 11 8 7 8 -5 8 -11 0 -20z m-134
-51 c3 -16 2 -26 -1 -23 -3 4 -8 19 -11 35 -3 16 -2 26 1 23 3 -4 8 -19 11
-35z m85 13 c-10 -9 -11 -8 -5 6 3 10 9 15 12 12 3 -3 0 -11 -7 -18z m174 13
c-3 -5 3 -10 15 -10 13 0 19 4 14 12 -4 7 -3 8 5 4 6 -4 9 -11 6 -16 -3 -5 -1
-11 5 -15 5 -3 10 0 10 7 0 9 3 9 10 -2 12 -18 14 -40 2 -25 -7 10 -24 16 -52
19 -24 2 -42 36 -19 36 5 0 7 -4 4 -10z m1381 -19 c-4 -5 -3 -11 1 -14 5 -2 2
-2 -4 -1 -7 2 -13 -2 -13 -8 0 -6 -2 -9 -5 -6 -8 8 6 38 17 38 5 0 7 -4 4 -9z
m848 -3 c-3 -4 -9 -8 -15 -8 -5 0 -9 4 -9 8 0 5 7 9 15 9 8 0 12 -4 9 -9z
m-1330 -61 c4 4 4 -1 0 -10 -3 -10 -7 -17 -8 -15 -1 2 -8 12 -16 23 -14 18
-13 19 1 8 9 -7 19 -10 23 -6z m-1747 -39 c-3 -8 -6 -5 -6 6 -1 11 2 17 5 13
3 -3 4 -12 1 -19z m558 2 c-3 -5 -15 -8 -26 -7 -19 1 -19 2 -3 14 18 13 38 8
29 -7z m2556 -3 c-13 -13 -26 -3 -16 12 3 6 11 8 17 5 6 -4 6 -10 -1 -17z
m-1358 -54 c-3 -7 -8 -13 -12 -13 -4 0 -8 6 -8 13 0 8 6 14 13 14 7 0 10 -6 7
-14z m-1213 -73 c-8 -5 -19 -10 -25 -10 -5 0 -3 5 5 10 8 5 20 10 25 10 6 0 3
-5 -5 -10z m-538 -65 c3 0 8 -2 10 -5 2 -3 1 -4 -1 -2 -2 1 -13 -6 -24 -15
-11 -10 -17 -13 -14 -6 4 6 3 14 -3 18 -6 4 -8 11 -4 16 3 5 11 6 17 2 7 -4
15 -8 19 -8z m542 -11 c3 -8 2 -12 -4 -9 -6 3 -10 10 -10 16 0 14 7 11 14 -7z
m1671 -23 c3 -5 2 -12 -3 -15 -5 -3 -9 1 -9 9 0 17 3 19 12 6z m-7 -37 c2 -1
-4 -4 -13 -8 -9 -3 -13 -2 -10 4 3 6 -1 10 -10 10 -9 0 -13 5 -10 10 5 8 12 7
23 -2 10 -7 18 -13 20 -14z m-1611 -16 c-3 -8 -6 -5 -6 6 -1 11 2 17 5 13 3
-3 4 -12 1 -19z m639 -10 c-1 -10 -4 -18 -8 -18 -5 0 -12 0 -17 0 -5 0 -8 8
-6 18 4 21 2 19 19 19 7 0 13 -9 12 -19z m-577 -32 c-3 -3 -11 5 -18 17 -13
21 -12 21 5 5 10 -10 16 -20 13 -22z m2471 -36 c0 -5 -4 -10 -10 -10 -5 0 -10
5 -10 10 0 6 5 10 10 10 6 0 10 -4 10 -10z m-1863 -45 c4 -4 3 -5 -4 -1 -6 3
-14 2 -18 -4 -4 -6 -11 -8 -16 -4 -5 3 -7 9 -4 14 6 10 31 7 42 -5z m1857 -26
c-3 -5 -13 -9 -22 -8 -14 0 -13 2 3 9 18 7 19 8 3 15 -10 4 -18 12 -18 18 0 5
9 2 20 -8 11 -10 17 -22 14 -26z m-2266 19 c7 -7 12 -9 12 -5 0 4 9 3 20 -3
21 -11 27 -30 9 -30 -5 0 -7 5 -4 10 4 7 -3 9 -19 6 -14 -3 -28 -1 -31 4 -3 5
-12 7 -20 3 -8 -3 -15 0 -15 7 0 6 5 8 10 5 6 -3 10 -1 10 4 0 14 13 14 28 -1z
m1226 -6 c2 -4 -4 -8 -14 -8 -10 0 -16 4 -14 8 3 4 9 8 14 8 5 0 11 -4 14 -8z
m-119 -54 c5 4 5 1 1 -6 -6 -10 -11 -10 -22 -1 -8 6 -14 14 -14 16 0 3 6 0 13
-6 8 -6 18 -7 22 -3z m-893 -16 c3 -11 0 -19 -8 -19 -16 0 -16 0 -8 21 8 21
11 20 16 -2z m158 9 c0 -6 -4 -12 -8 -15 -5 -3 -9 1 -9 9 0 8 4 15 9 15 4 0 8
-4 8 -9z m-1143 -16 c0 -8 -4 -12 -9 -9 -5 3 -6 10 -3 15 9 13 12 11 12 -6z
m3003 -5 c0 -5 -5 -10 -11 -10 -5 0 -7 5 -4 10 3 6 8 10 11 10 2 0 4 -4 4 -10z
m-3020 -19 c0 -6 -4 -13 -10 -16 -5 -3 -10 1 -10 9 0 9 5 16 10 16 6 0 10 -4
10 -9z m18 -24 c-1 -2 3 -11 11 -20 17 -22 8 -22 -13 -1 -9 8 -13 20 -10 25 3
6 8 8 11 5 2 -2 3 -6 1 -9z m50 -92 c-3 -3 -9 2 -12 12 -6 14 -5 15 5 6 7 -7
10 -15 7 -18z m11 -36 c-15 -9 -32 -2 -24 11 3 5 13 6 21 3 12 -4 13 -8 3 -14z
m2907 -28 c0 -22 -28 -22 -34 0 -3 11 -1 11 8 -1 10 -12 11 -11 7 7 -3 14 -1
20 7 17 6 -2 12 -13 12 -23z m-2846 -60 c0 -14 2 -14 10 -1 6 9 10 10 10 3 0
-23 -18 -22 -34 2 -14 21 -14 24 -1 19 8 -4 15 -14 15 -23z m2764 -68 c-8 -10
-24 -29 -36 -43 l-20 -25 16 28 c9 15 14 33 10 39 -4 7 -3 8 4 4 7 -4 12 -2
12 3 0 6 7 11 15 11 13 0 13 -2 -1 -17z m-64 -48 c0 -8 -3 -16 -7 -18 -5 -3
-8 5 -8 18 0 13 3 21 8 18 4 -2 7 -10 7 -18z m-2480 -113 c0 -12 -3 -12 -15
-2 -8 7 -15 13 -15 15 0 1 7 2 15 2 8 0 15 -7 15 -15z m2325 -52 c3 -6 -1 -7
-9 -4 -18 7 -21 14 -7 14 6 0 13 -4 16 -10z m-2155 -34 c0 -2 -8 -10 -17 -17
-16 -13 -17 -12 -4 4 13 16 21 21 21 13z m2004 -44 c3 -5 -1 -9 -9 -9 -8 0
-12 4 -9 9 3 4 7 8 9 8 2 0 6 -4 9 -8z m-194 -96 c0 -3 -4 -8 -10 -11 -5 -3
-10 -1 -10 4 0 6 5 11 10 11 6 0 10 -2 10 -4z m-1435 -34 c-3 -3 -11 0 -18 7
-9 10 -8 11 6 5 10 -3 15 -9 12 -12z m35 8 c0 -5 -5 -10 -11 -10 -5 0 -7 5 -4
10 3 6 8 10 11 10 2 0 4 -4 4 -10z m1351 -17 c12 -16 12 -17 -2 -6 -9 7 -20 9
-24 5 -5 -4 -5 -1 -1 6 9 16 11 15 27 -5z m-40 -18 c-1 -3 -4 -5 -8 -6 -5 0
-13 -5 -19 -10 -7 -5 -11 -3 -11 6 0 8 4 12 9 9 4 -3 11 3 15 12 6 15 16 7 14
-11z m-1251 -6 c0 -6 7 -8 16 -5 9 4 13 2 8 -5 -4 -8 1 -9 15 -4 11 3 21 2 21
-3 0 -4 -15 -8 -34 -8 -19 0 -32 4 -30 8 3 5 0 8 -5 8 -6 0 -11 5 -11 10 0 6
5 10 10 10 6 0 10 -5 10 -11z m1200 3 c0 -5 -9 -17 -20 -27 -18 -17 -20 -17
-14 -2 3 9 10 17 16 17 5 0 6 5 3 10 -3 6 -1 10 4 10 6 0 11 -4 11 -8z m-1033
-28 c-3 -3 -12 -4 -19 -1 -8 3 -5 6 6 6 11 1 17 -2 13 -5z m63 -24 c5 0 11 6
13 13 4 9 6 9 6 0 1 -18 -32 -33 -50 -22 -10 6 -10 9 -1 9 6 0 13 8 13 18 1
16 2 16 6 0 2 -10 8 -18 13 -18z m762 8 c-9 -9 -15 -9 -24 1 -11 10 -10 11 5
6 10 -5 17 -2 17 6 0 7 3 9 7 6 4 -4 1 -13 -5 -19z m-792 8 c0 -2 -7 -7 -16
-10 -8 -3 -12 -2 -9 4 6 10 25 14 25 6z m715 -6 c-3 -5 -12 -10 -18 -10 -7 0
-6 4 3 10 19 12 23 12 15 0z m-535 -22 c0 16 16 16 23 -1 3 -8 -5 -12 -23 -12
-20 -1 -26 3 -22 13 4 11 6 11 13 0 7 -10 9 -10 9 0z m60 0 c0 -4 -4 -8 -9 -8
-6 0 -12 4 -15 8 -3 5 1 9 9 9 8 0 15 -4 15 -9z m110 4 c0 -5 -7 -17 -15 -28
-14 -18 -14 -17 -4 9 12 27 19 34 19 19z m65 -1 c-9 -8 -36 -10 -30 -2 2 4 11
8 20 8 8 0 13 -3 10 -6z m85 3 c0 -8 -19 -13 -24 -6 -3 5 1 9 9 9 8 0 15 -2
15 -3z m159 -16 c-5 -10 -13 -18 -16 -18 -3 0 -3 3 0 7 4 3 3 11 -3 17 -6 8
-3 12 10 12 15 0 16 -4 9 -18z m-63 -3 c10 -8 17 -15 14 -15 -32 -7 -39 -7
-34 2 4 6 0 14 -7 19 -8 5 -9 9 -3 9 5 0 19 -7 30 -15z m-126 1 c0 -2 -7 -9
-15 -16 -13 -11 -14 -10 -9 4 5 14 24 23 24 12z"/>
<path d="M1725 3100 c10 -11 20 -20 23 -20 3 0 -3 9 -13 20 -10 11 -20 20 -23
20 -3 0 3 -9 13 -20z"/>
<path d="M1301 2418 c-7 -11 -7 -18 -1 -18 5 0 10 5 10 10 0 6 7 10 15 10 8 0
15 4 15 8 0 16 -27 9 -39 -10z"/>
<path d="M1426 2371 c-3 -4 6 -7 19 -7 14 0 22 2 19 5 -8 8 -34 10 -38 2z"/>
<path d="M1530 2372 c0 -8 -5 -10 -12 -6 -7 4 -8 3 -4 -4 4 -6 14 -8 23 -5 13
5 15 2 9 -13 -6 -15 -5 -17 5 -6 11 10 10 15 -4 29 -11 12 -17 13 -17 5z"/>
<path d="M1587 2334 c-9 -10 12 -44 26 -43 9 0 9 2 0 6 -7 2 -13 9 -13 14 0 6
6 7 13 3 8 -5 8 -2 -2 9 -15 19 -15 19 -24 11z"/>
<path d="M1551 2317 c-8 -10 -7 -14 2 -14 8 0 14 6 14 14 0 7 -1 13 -2 13 -2
0 -8 -6 -14 -13z"/>
<path d="M1170 2130 c0 -5 5 -10 11 -10 5 0 7 5 4 10 -3 6 -8 10 -11 10 -2 0
-4 -4 -4 -10z"/>
<path d="M1730 2132 c0 -4 10 -9 22 -9 18 -2 20 0 8 7 -18 12 -30 13 -30 2z"/>
<path d="M1156 2102 c-2 -4 -1 -14 3 -21 6 -10 10 -9 14 3 6 16 -8 32 -17 18z"/>
<path d="M1754 2068 c0 -10 1 -18 3 -18 1 0 7 8 12 18 7 13 6 19 -2 19 -7 0
-13 -9 -13 -19z"/>
<path d="M1266 1978 c3 -4 9 -8 15 -8 5 0 9 4 9 8 0 5 -7 9 -15 9 -8 0 -12 -4
-9 -9z"/>
<path d="M1374 1949 c-10 -17 9 -30 26 -18 12 9 12 10 -4 5 -13 -5 -17 -2 -12
9 6 17 0 20 -10 4z"/>
<path d="M1450 1930 c-9 -6 -10 -10 -3 -10 6 0 15 5 18 10 8 12 4 12 -15 0z"/>
<path d="M1517 1889 c7 -7 15 -10 18 -7 3 3 -2 9 -12 12 -14 6 -15 5 -6 -5z"/>
<path d="M1581 1878 c-1 -9 4 -20 9 -23 6 -4 7 -12 4 -18 -4 -8 -2 -7 7 1 10
9 10 15 3 20 -6 4 -14 14 -17 22 -4 12 -6 12 -6 -2z"/>
<path d="M1545 1871 c-6 -11 13 -26 22 -17 4 3 0 6 -8 6 -11 0 -11 2 1 10 9 6
10 10 3 10 -6 0 -14 -4 -18 -9z"/>
<path d="M1616 1868 c3 -4 16 -7 29 -6 30 3 23 11 -9 13 -14 0 -22 -3 -20 -7z"/>
<path d="M1706 1844 c-4 -9 -4 -19 -1 -22 3 -3 5 1 5 9 0 12 2 11 10 -1 7 -12
9 -10 7 8 -2 26 -12 29 -21 6z"/>
<path d="M1796 2017 c3 -10 9 -15 12 -12 3 3 0 11 -7 18 -10 9 -11 8 -5 -6z"/>
<path d="M2781 3199 c0 -9 5 -22 13 -28 11 -9 15 -8 20 5 4 9 4 19 1 22 -3 3
-5 0 -5 -6 0 -19 -18 -14 -23 6 -4 14 -5 14 -6 1z"/>
<path d="M1116 3192 c-3 -5 1 -9 9 -9 8 0 12 4 9 9 -3 4 -7 8 -9 8 -2 0 -6 -4
-9 -8z"/>
<path d="M1587 3189 c7 -7 15 -10 18 -7 3 3 -2 9 -12 12 -14 6 -15 5 -6 -5z"/>
<path d="M2690 3190 c0 -5 5 -10 11 -10 5 0 7 5 4 10 -3 6 -8 10 -11 10 -2 0
-4 -4 -4 -10z"/>
<path d="M2670 3160 c6 -11 15 -18 21 -15 13 9 11 13 -12 25 -19 11 -20 10 -9
-10z"/>
<path d="M2717 3173 c-4 -3 -7 -11 -7 -17 0 -6 5 -5 12 2 6 6 9 14 7 17 -3 3
-9 2 -12 -2z"/>
<path d="M1026 3145 c-11 -8 -16 -15 -10 -16 5 0 17 -2 26 -4 16 -3 34 22 23
33 -3 3 -5 0 -5 -6 0 -7 -5 -12 -11 -12 -5 0 -7 5 -4 10 8 13 4 12 -19 -5z"/>
<path d="M2535 3131 c4 -8 2 -17 -6 -22 -9 -6 -10 -9 -2 -9 19 0 27 21 13 33
-10 9 -11 9 -5 -2z"/>
<path d="M3162 3119 c-8 -12 -9 -19 -1 -19 5 0 7 -6 3 -12 -5 -9 -2 -9 9 1 13
11 17 11 17 1 0 -8 3 -10 7 -7 3 4 16 -2 28 -13 21 -19 23 -20 36 -3 12 14 12
16 0 8 -11 -6 -13 -4 -9 7 4 8 1 15 -7 15 -7 0 -11 -7 -8 -16 4 -13 1 -12 -10
2 -8 10 -24 19 -36 20 -23 1 -28 13 -9 19 7 3 8 7 2 11 -5 3 -15 -3 -22 -14z"/>
<path d="M904 3109 c-4 -7 -3 -9 4 -5 5 3 13 0 15 -6 4 -9 6 -10 6 -1 1 17
-16 25 -25 12z"/>
<path d="M870 3075 c-7 -9 -10 -18 -7 -22 4 -3 1 -13 -5 -22 -10 -12 -7 -12 8
2 11 9 23 15 26 12 3 -3 11 1 17 9 8 10 9 16 1 21 -5 3 -10 0 -10 -8 0 -7 -7
-14 -15 -14 -18 0 -19 9 -3 25 7 7 9 12 6 12 -3 0 -11 -7 -18 -15z"/>
<path d="M2508 3083 c7 -3 16 -2 19 1 4 3 -2 6 -13 5 -11 0 -14 -3 -6 -6z"/>
<path d="M1855 3070 c3 -5 8 -10 11 -10 2 0 4 5 4 10 0 6 -5 10 -11 10 -5 0
-7 -4 -4 -10z"/>
<path d="M1855 3040 c-4 -6 -5 -10 -3 -11 25 -6 38 -6 38 1 0 12 -29 20 -35
10z"/>
<path d="M2474 3023 c2 -10 6 -17 10 -16 15 3 16 11 2 22 -12 10 -14 9 -12 -6z"/>
<path d="M2463 2986 c18 -14 24 -32 7 -21 -6 4 -7 -1 -3 -12 6 -16 5 -16 -10
-4 -9 7 -14 18 -10 24 3 6 1 7 -6 3 -8 -5 -7 -13 3 -28 8 -11 12 -27 9 -34 -3
-8 1 -14 8 -14 7 0 10 3 6 6 -3 4 1 20 9 36 16 30 6 58 -20 58 -6 0 -3 -7 7
-14z"/>
<path d="M3405 2990 c-3 -6 1 -7 9 -4 18 7 21 14 7 14 -6 0 -13 -4 -16 -10z"/>
<path d="M2005 2949 c-4 -6 -5 -12 -2 -15 2 -3 7 2 10 11 7 17 1 20 -8 4z"/>
<path d="M2032 2931 c-11 -7 -11 -9 0 -14 9 -3 15 1 15 9 0 8 -1 14 -1 14 -1
0 -7 -4 -14 -9z"/>
<path d="M3455 2930 c3 -5 8 -10 11 -10 2 0 4 5 4 10 0 6 -5 10 -11 10 -5 0
-7 -4 -4 -10z"/>
<path d="M635 2830 c-3 -5 -1 -10 4 -10 6 0 11 5 11 10 0 6 -2 10 -4 10 -3 0
-8 -4 -11 -10z"/>
<path d="M3504 2829 c-8 -14 14 -19 25 -6 8 10 7 14 -5 14 -8 0 -17 -4 -20 -8z"/>
<path d="M650 2805 c-7 -8 -9 -15 -4 -15 4 0 -1 -7 -12 -15 -13 -10 -14 -14
-4 -13 14 3 50 40 50 52 0 11 -18 6 -30 -9z"/>
<path d="M613 2795 c0 -8 4 -12 9 -9 5 3 6 10 3 15 -9 13 -12 11 -12 -6z"/>
<path d="M2464 2788 c-5 -7 -3 -8 6 -3 9 6 12 4 8 -7 -4 -8 0 -15 7 -15 10 0
11 5 4 19 -11 21 -15 22 -25 6z"/>
<path d="M2175 2771 c-3 -5 -2 -12 3 -15 5 -3 9 1 9 9 0 17 -3 19 -12 6z"/>
<path d="M3570 2770 c-9 -6 -10 -10 -3 -10 6 0 15 5 18 10 8 12 4 12 -15 0z"/>
<path d="M2206 2651 c-3 -5 1 -14 9 -21 10 -9 15 -9 15 -1 0 6 -5 11 -11 11
-5 0 -7 5 -4 10 3 6 4 10 1 10 -3 0 -7 -4 -10 -9z"/>
<path d="M3596 2645 c4 -8 8 -15 10 -15 2 0 4 7 4 15 0 8 -4 15 -10 15 -5 0
-7 -7 -4 -15z"/>
<path d="M2238 2603 c7 -3 16 -2 19 1 4 3 -2 6 -13 5 -11 0 -14 -3 -6 -6z"/>
<path d="M544 2518 c10 -6 22 -6 26 -2 5 5 -3 10 -18 11 -22 1 -24 0 -8 -9z"/>
<path d="M3676 2468 c3 -5 10 -6 15 -3 13 9 11 12 -6 12 -8 0 -12 -4 -9 -9z"/>
<path d="M3667 2448 c2 -5 10 -8 18 -8 8 0 16 3 18 8 3 4 -5 7 -18 7 -13 0
-21 -3 -18 -7z"/>
<path d="M533 2416 c0 -15 -8 -33 -18 -40 -17 -12 -16 -13 5 -11 25 2 35 36
20 64 -5 9 -7 5 -7 -13z"/>
<path d="M530 2336 c14 -18 13 -19 -5 -12 -16 6 -18 5 -7 -5 8 -9 15 -10 22
-3 8 8 5 15 -7 25 -17 13 -17 13 -3 -5z"/>
<path d="M2786 2280 c-7 -17 -16 -27 -21 -23 -4 5 -5 2 -1 -5 9 -15 26 -6 26
14 0 8 4 13 8 10 4 -2 8 4 8 15 0 26 -5 24 -20 -11z"/>
<path d="M3710 2235 c-7 -8 -9 -15 -5 -15 4 0 2 -6 -4 -13 -13 -17 -5 -27 23
-27 12 0 16 3 10 8 -6 4 -10 19 -9 35 2 31 2 32 -15 12z"/>
<path d="M2787 2226 c-6 -14 1 -26 14 -26 4 0 7 9 6 20 -1 23 -12 26 -20 6z"/>
<path d="M3730 2160 c-8 -5 -11 -10 -6 -10 6 0 1 -7 -10 -15 -10 -8 -14 -14
-9 -14 14 0 40 22 43 37 2 14 1 15 -18 2z"/>
<path d="M2380 2150 c0 -5 -8 -10 -17 -11 -12 0 -13 -2 -5 -6 9 -4 10 -9 2
-18 -8 -9 -6 -14 6 -19 9 -4 19 -4 22 -1 3 3 0 5 -6 5 -7 0 -12 5 -12 11 0 5
3 8 8 6 4 -3 8 6 8 19 1 13 0 24 -2 24 -2 0 -4 -4 -4 -10z"/>
<path d="M2736 2105 c4 -8 8 -15 10 -15 2 0 4 7 4 15 0 8 -4 15 -10 15 -5 0
-7 -7 -4 -15z"/>
<path d="M3730 2109 c0 -5 -5 -7 -12 -3 -7 4 -8 3 -4 -4 4 -6 13 -9 21 -5 17
6 20 23 5 23 -5 0 -10 -5 -10 -11z"/>
<path d="M515 2071 c-3 -5 -2 -12 3 -15 5 -3 9 1 9 9 0 17 -3 19 -12 6z"/>
<path d="M3727 2067 c-3 -8 0 -14 7 -14 7 0 13 6 13 14 0 7 -4 13 -8 13 -4 0
-9 -6 -12 -13z"/>
<path d="M536 2044 c-4 -9 -4 -19 -1 -22 3 -3 5 0 5 7 0 7 4 10 8 7 5 -3 9 1
9 9 0 20 -13 19 -21 -1z"/>
<path d="M2369 2058 c-7 -25 -4 -34 12 -33 10 1 22 5 26 9 5 4 4 7 -2 6 -21
-5 -36 0 -30 10 3 6 4 10 1 10 -3 0 -6 -1 -7 -2z"/>
<path d="M2710 2029 c-11 -6 -12 -9 -2 -9 7 0 10 -5 7 -10 -4 -6 -11 -7 -17
-4 -6 4 -6 -2 1 -15 13 -23 26 -29 18 -8 -2 6 2 19 10 29 16 18 4 31 -17 17z"/>
<path d="M2650 1970 c0 -5 5 -10 11 -10 5 0 8 -4 4 -9 -3 -5 -1 -12 4 -15 5
-3 11 0 14 7 3 8 -4 19 -14 25 -12 8 -19 8 -19 2z"/>
<path d="M2606 1952 c-3 -5 1 -9 9 -9 8 0 12 4 9 9 -3 4 -7 8 -9 8 -2 0 -6 -4
-9 -8z"/>
<path d="M2430 1911 c0 -10 19 -25 25 -20 1 2 -3 10 -11 17 -8 7 -14 8 -14 3z"/>
<path d="M2470 1880 c0 -5 5 -10 11 -10 5 0 7 5 4 10 -3 6 -8 10 -11 10 -2 0
-4 -4 -4 -10z"/>
<path d="M570 1850 c0 -5 5 -10 11 -10 5 0 7 5 4 10 -3 6 -8 10 -11 10 -2 0
-4 -4 -4 -10z"/>
<path d="M3686 1841 c-4 -5 -2 -12 4 -16 6 -4 8 -11 5 -16 -10 -14 5 -10 22 6
8 9 13 19 9 22 -3 4 -6 3 -6 -2 0 -4 -6 -2 -14 4 -9 8 -16 8 -20 2z"/>
<path d="M616 1733 c-6 -14 -5 -15 5 -6 7 7 10 15 7 18 -3 3 -9 -2 -12 -12z"/>
<path d="M3651 1717 c-7 -10 -10 -17 -6 -17 4 0 2 -7 -5 -15 -14 -17 -8 -28
17 -31 12 -2 13 0 4 9 -18 18 -13 31 6 16 9 -8 14 -9 10 -2 -4 7 0 13 10 16
16 4 16 5 1 6 -9 0 -18 8 -20 18 -3 15 -4 15 -17 0z"/>
<path d="M765 1510 c3 -5 8 -10 11 -10 2 0 4 5 4 10 0 6 -5 10 -11 10 -5 0 -7
-4 -4 -10z"/>
<path d="M3590 1509 c0 -5 5 -7 10 -4 6 3 10 8 10 11 0 2 -4 4 -10 4 -5 0 -10
-5 -10 -11z"/>
<path d="M826 1432 c-3 -5 1 -9 9 -9 8 0 12 4 9 9 -3 4 -7 8 -9 8 -2 0 -6 -4
-9 -8z"/>
<path d="M930 1330 c0 -5 5 -10 11 -10 5 0 7 5 4 10 -3 6 -8 10 -11 10 -2 0
-4 -4 -4 -10z"/>
<path d="M1026 1285 c-4 -10 -2 -14 5 -9 8 4 9 -1 4 -17 -3 -13 -3 -19 2 -14
5 6 11 12 15 15 3 3 1 13 -7 23 -11 16 -13 16 -19 2z"/>
<path d="M3310 1210 c0 -5 5 -10 11 -10 5 0 7 5 4 10 -3 6 -8 10 -11 10 -2 0
-4 -4 -4 -10z"/>
<path d="M3226 1168 c6 -9 44 -6 44 3 0 4 -11 6 -24 5 -13 0 -22 -4 -20 -8z"/>
<path d="M3137 1135 l-27 -24 22 -12 c22 -12 22 -11 8 6 -14 17 -13 18 2 12
12 -4 15 -2 11 9 -3 7 -1 14 5 14 6 0 12 -5 14 -10 2 -6 9 0 17 12 13 21 13
22 -1 10 -9 -7 -18 -9 -20 -3 -1 5 -15 -1 -31 -14z"/>
<path d="M1387 1086 c3 -15 9 -28 12 -31 12 -7 6 34 -6 46 -7 7 -9 3 -6 -15z"/>
<path d="M1340 1070 c8 -5 20 -10 25 -10 6 0 3 5 -5 10 -8 5 -19 10 -25 10 -5
0 -3 -5 5 -10z"/>
<path d="M1435 1039 c-4 -6 -5 -12 -2 -15 2 -3 7 2 10 11 7 17 1 20 -8 4z"/>
<path d="M2977 1043 c-4 -3 -7 -11 -7 -17 0 -6 4 -5 9 3 8 12 12 12 24 2 12
-9 17 -9 23 0 4 7 3 9 -4 5 -6 -3 -13 -2 -17 4 -7 12 -19 13 -28 3z"/>
<path d="M1560 1031 c0 -6 4 -13 10 -16 6 -3 7 1 4 9 -7 18 -14 21 -14 7z"/>
<path d="M1536 1012 c-3 -5 1 -9 9 -9 8 0 12 4 9 9 -3 4 -7 8 -9 8 -2 0 -6 -4
-9 -8z"/>
<path d="M2770 989 c-7 -11 -10 -23 -7 -25 2 -2 9 7 15 21 14 30 7 33 -8 4z"/>
<path d="M1590 996 c0 -2 9 -6 20 -9 11 -3 18 -1 14 4 -5 9 -34 13 -34 5z"/>
<path d="M1736 985 c-3 -8 -1 -15 4 -15 6 0 10 7 10 15 0 8 -2 15 -4 15 -2 0
-6 -7 -10 -15z"/>
<path d="M2562 957 c-5 -7 -12 -19 -16 -27 -6 -12 -5 -12 6 1 7 9 19 14 26 12
6 -3 12 1 12 9 0 10 3 9 11 -2 8 -12 10 -12 7 -1 -5 18 -34 23 -46 8z"/>
<path d="M1815 950 c3 -5 8 -10 11 -10 2 0 4 5 4 10 0 6 -5 10 -11 10 -5 0 -7
-4 -4 -10z"/>
<path d="M1951 944 c0 -11 3 -14 6 -6 3 7 2 16 -1 19 -3 4 -6 -2 -5 -13z"/>
<path d="M2010 927 c0 -2 6 -10 14 -16 11 -9 16 -9 22 1 4 7 4 10 -1 6 -4 -4
-14 -3 -22 3 -7 6 -13 9 -13 6z"/>
<path d="M2515 921 c-3 -5 -2 -12 3 -15 5 -3 9 1 9 9 0 17 -3 19 -12 6z"/>
<path d="M2465 909 c-3 -4 2 -6 10 -5 21 3 28 13 10 13 -9 0 -18 -4 -20 -8z"/>
</g>
</svg>
